<?xml version="1.0" encoding="UTF-8"?>
<svg width="800px" height="800px" viewBox="0 0 24 24" version="1.1" xmlns="http://www.w3.org/2000/svg" xmlns:xlink="http://www.w3.org/1999/xlink">
    <g stroke="none" stroke-width="1" fill="none" fill-rule="evenodd">
        <path d="M19.5788,10.8863 C19.0588,8.0663 16.6988,5.0363 13.1288,4.5763 C10.8488,4.2963 8.6888,5.0363 7.1688,6.6963 C5.7688,8.2163 5.2488,10.3363 5.6888,12.7863 C5.8488,13.6863 6.1788,14.5063 6.6188,15.3563 C7.4188,16.7963 7.3588,18.5063 6.4788,20.0063 L6.3588,20.2063 C6.1988,20.4463 6.2388,20.7663 6.4788,20.9363 C6.5588,21.0063 6.6788,21.0363 6.7988,21.0363 C6.9588,21.0363 7.1088,20.9663 7.2088,20.8363 L7.3288,20.6763 C8.4988,18.7463 8.5688,16.5363 7.5088,14.7063 C7.1388,13.9963 6.8688,13.2963 6.7388,12.5863 C6.3788,10.5363 6.7988,8.7963 7.9288,7.5063 C9.1288,6.1863 10.8488,5.6163 12.7088,5.8363 C15.7488,6.2163 17.6988,8.8163 18.1288,11.1963 C18.5288,13.3963 17.9988,15.4963 16.6988,17.0063 C15.2788,18.6663 13.1288,19.5163 10.9988,19.3563 C10.6288,19.3263 10.2988,19.5963 10.2788,19.9663 C10.2488,20.3363 10.5188,20.6663 10.8888,20.6963 C11.2688,20.7363 11.6788,20.7363 12.0688,20.7363 C14.2488,20.7363 16.2988,19.9363 17.8188,18.1963 C19.3588,16.3963 20.0088,13.8663 19.5788,10.8863"  fill="#FF5733" fill-rule="nonzero"></path>
        <path d="M9.4398,8.5468 C9.1198,8.4368 8.7698,8.6168 8.6598,8.9368 C8.4798,9.4168 8.3898,9.9368 8.3898,10.4768 C8.3898,10.8068 8.6598,11.0768 8.9898,11.0768 C9.3198,11.0768 9.5898,10.8068 9.5898,10.4768 C9.5898,10.0768 9.6598,9.6968 9.7898,9.3268 C9.8998,9.0068 9.7198,8.6568 9.4398,8.5468" fill="#3366FF" fill-rule="nonzero"></path>
        <path d="M10.3299,7.1866 C10.1299,7.0366 9.8499,7.0666 9.6799,7.2466 C9.2499,7.6766 8.9099,8.1866 8.6799,8.7466 C8.5599,9.0566 8.7299,9.4166 9.0399,9.5366 C9.1099,9.5666 9.1899,9.5866 9.2599,9.5866 C9.4999,9.5866 9.7399,9.4466 9.8399,9.2066 C9.9999,8.8066 10.2499,8.4366 10.5599,8.1366 C10.7499,7.9566 10.7599,7.6566 10.5799,7.4766 C10.5099,7.3866 10.4199,7.3366 10.3299,7.3166 L10.3299,7.1866 Z" fill="#3366FF" fill-rule="nonzero"></path>
        <path d="M10.1997,12.2564 C9.8697,12.2564 9.5997,12.5264 9.5997,12.8564 L9.5997,13.0064 C9.5997,13.3364 9.8697,13.6064 10.1997,13.6064 C10.5297,13.6064 10.7997,13.3364 10.7997,13.0064 L10.7997,12.8564 C10.7997,12.5264 10.5297,12.2564 10.1997,12.2564" fill="#3366FF" fill-rule="nonzero"></path>
        <path d="M12.5994,9.8568 C12.2694,9.8568 11.9994,10.1268 11.9994,10.4568 L11.9994,10.6068 C11.9994,10.9368 12.2694,11.2068 12.5994,11.2068 C12.9294,11.2068 13.1994,10.9368 13.1994,10.6068 L13.1994,10.4568 C13.1994,10.1268 12.9294,9.8568 12.5994,9.8568" fill="#3366FF" fill-rule="nonzero"></path>
        <path d="M14.9996,11.2568 C14.6696,11.2568 14.3996,11.5268 14.3996,11.8568 L14.3996,12.0068 C14.3996,12.3368 14.6696,12.6068 14.9996,12.6068 C15.3296,12.6068 15.5996,12.3368 15.5996,12.0068 L15.5996,11.8568 C15.5996,11.5268 15.3296,11.2568 14.9996,11.2568" fill="#3366FF" fill-rule="nonzero"></path>
        <path d="M13.7999,14.4566 C13.4699,14.4566 13.1999,14.7266 13.1999,15.0566 L13.1999,15.2066 C13.1999,15.5366 13.4699,15.8066 13.7999,15.8066 C14.1299,15.8066 14.3999,15.5366 14.3999,15.2066 L14.3999,15.0566 C14.3999,14.7266 14.1299,14.4566 13.7999,14.4566" fill="#3366FF" fill-rule="nonzero"></path>
    </g>
</svg> 